<?xml version="1.0" standalone="no"?>
<!DOCTYPE svg PUBLIC "-//W3C//DTD SVG 20010904//EN"
 "http://www.w3.org/TR/2001/REC-SVG-20010904/DTD/svg10.dtd">
<svg version="1.0" xmlns="http://www.w3.org/2000/svg"
 width="200.000000pt" height="200.000000pt" viewBox="0 0 200.000000 200.000000"
 preserveAspectRatio="xMidYMid meet">
<metadata>
Created by potrace 1.10, written by Peter Selinger 2001-2011
</metadata>
<g transform="translate(0.000000,200.000000) scale(0.100000,-0.100000)"
fill="#000000" stroke="none">
<path d="M655 1868 c-38 -16 -75 -34 -82 -41 -9 -9 1 -44 47 -154 l58 -143
-66 -64 c-37 -36 -83 -90 -102 -120 l-35 -55 -135 -3 -135 -3 0 -95 0 -95 98
-3 c80 -2 98 -5 93 -17 -2 -7 -8 -41 -12 -74 l-7 -60 -131 -3 -131 -3 0 -95 0
-95 135 -3 136 -3 17 -71 c9 -39 21 -76 27 -82 7 -7 118 97 364 343 l354 354
-30 29 c-26 24 -29 33 -24 60 9 46 33 68 75 68 24 0 43 -8 61 -25 l26 -25 49
51 50 50 -22 19 -23 18 60 143 c46 112 56 147 47 156 -7 7 -45 26 -84 42 -53
22 -75 27 -80 18 -5 -7 -31 -68 -60 -137 -50 -120 -53 -125 -80 -123 -15 1
-68 2 -118 2 -49 0 -103 -1 -118 -2 -28 -2 -30 3 -81 126 -29 70 -57 132 -62
136 -5 5 -40 -5 -79 -21z m220 -448 c11 -12 19 -36 19 -55 0 -47 -28 -75 -74
-75 -46 0 -74 28 -74 75 0 47 28 75 74 75 24 0 43 -7 55 -20z"/>
<path d="M1051 956 c-446 -446 -809 -815 -805 -819 4 -4 62 -7 128 -7 l121 0
71 71 72 72 39 -30 c91 -72 198 -108 318 -107 157 1 272 53 402 181 l72 72
158 3 158 3 0 95 0 95 -109 3 c-106 3 -108 3 -102 25 4 12 12 46 18 74 l12 52
136 3 135 3 0 95 0 95 -131 3 -131 3 -6 58 c-4 32 -9 65 -13 74 -5 14 6 17 93
19 l98 3 0 95 0 95 -63 5 -63 5 111 110 110 110 0 122 c0 67 -4 124 -8 127 -5
3 -374 -361 -821 -808z"/>
</g>
</svg>
