<?xml version="1.0" standalone="no"?>
<!DOCTYPE svg PUBLIC "-//W3C//DTD SVG 20010904//EN"
 "http://www.w3.org/TR/2001/REC-SVG-20010904/DTD/svg10.dtd">
<svg version="1.0" xmlns="http://www.w3.org/2000/svg"
 width="200.000000pt" height="200.000000pt" viewBox="0 0 200.000000 200.000000"
 preserveAspectRatio="xMidYMid meet">
<metadata>
Created by potrace 1.10, written by Peter Selinger 2001-2011
</metadata>
<g transform="translate(0.000000,200.000000) scale(0.100000,-0.100000)"
fill="#000000" stroke="none">
<path d="M660 1910 c-30 -11 -55 -20 -57 -20 -1 0 -18 -14 -38 -31 -42 -38
-42 -50 10 -169 18 -41 39 -92 46 -112 l13 -37 -65 -68 c-35 -38 -77 -85 -94
-106 -28 -36 -33 -38 -95 -42 -36 -2 -91 -4 -122 -4 -50 -1 -60 -4 -74 -27
-26 -39 -27 -170 -2 -206 17 -25 25 -28 78 -28 32 0 65 -3 74 -6 17 -6 23 -59
8 -68 -5 -3 -52 -6 -105 -7 -73 -1 -103 -6 -126 -20 l-31 -19 0 -95 c0 -131 4
-135 148 -135 59 0 112 -4 117 -8 6 -4 19 -33 28 -65 19 -61 52 -93 84 -83 17
6 684 666 704 697 14 23 10 49 -12 80 -39 55 1 86 63 50 22 -12 47 -20 57 -16
11 3 40 28 65 55 45 48 57 82 35 96 -15 9 -4 61 32 139 16 36 36 86 45 112 15
43 15 47 -3 72 -19 25 -47 42 -126 76 -69 30 -97 4 -152 -140 -20 -52 -43 -99
-50 -105 -8 -7 -30 -8 -61 -3 -27 5 -74 4 -106 -1 -72 -12 -72 -12 -127 119
-37 87 -77 146 -99 145 -4 -1 -32 -10 -62 -20z m140 -167 c53 -131 53 -131 79
-121 34 13 198 13 232 0 25 -10 26 -9 79 121 29 73 57 137 62 144 7 8 28 4 81
-18 40 -17 77 -35 84 -42 9 -9 -1 -44 -47 -156 l-60 -143 23 -18 22 -19 -50
-50 -49 -51 -26 25 c-18 17 -37 25 -61 25 -42 0 -66 -22 -75 -68 -5 -27 -2
-36 24 -60 l30 -29 -354 -354 c-229 -229 -357 -350 -363 -344 -11 11 -41 119
-41 145 0 13 -20 15 -137 15 l-138 0 0 95 0 95 131 0 132 0 6 65 c4 35 12 70
18 77 6 7 7 13 2 14 -5 0 -52 1 -104 2 l-95 2 0 95 0 95 135 3 135 3 35 55
c19 30 65 84 102 120 l66 64 -58 143 c-46 110 -56 145 -47 154 7 7 44 25 82
41 52 22 73 27 81 18 6 -6 35 -70 64 -143z"/>
<path d="M765 1420 c-11 -12 -19 -36 -19 -55 0 -47 28 -75 74 -75 46 0 74 28
74 75 0 47 -28 75 -74 75 -24 0 -43 -7 -55 -20z m86 -36 c9 -11 10 -20 2 -32
-15 -24 -44 -27 -59 -7 -28 38 27 75 57 39z"/>
<path d="M1850 1793 c-8 -3 -378 -368 -822 -812 -621 -619 -808 -812 -808
-830 0 -43 24 -50 163 -51 l128 0 64 60 64 59 58 -35 c32 -19 94 -46 138 -60
71 -23 91 -25 185 -21 160 8 272 60 406 189 l62 59 138 5 c76 2 146 7 156 10
28 9 36 34 39 121 4 102 -12 133 -70 133 -21 0 -59 3 -84 6 -44 6 -46 8 -40
33 11 48 19 51 134 51 144 0 149 4 149 130 0 115 -11 130 -102 131 -85 0 -148
5 -154 12 -3 3 -8 18 -10 35 -6 34 10 42 89 42 50 0 86 23 88 58 7 117 -12
202 -45 202 -27 0 -9 30 62 104 l72 74 0 129 c0 122 -1 131 -22 150 -13 11
-30 18 -38 16z m30 -157 l0 -122 -117 -116 -118 -116 70 2 70 1 0 -95 0 -95
-95 -2 c-52 -1 -99 -2 -104 -2 -5 -1 -3 -7 3 -15 6 -7 14 -42 17 -77 l6 -64
132 0 131 0 0 -95 0 -95 -138 0 c-132 0 -137 -1 -137 -21 0 -19 -19 -88 -34
-124 -5 -13 10 -15 106 -15 l113 0 0 -95 0 -95 -158 -3 -158 -3 -72 -72 c-130
-128 -245 -180 -402 -181 -120 -1 -227 35 -318 107 l-39 30 -72 -72 -71 -71
-121 0 c-66 0 -124 3 -128 7 -9 9 1615 1634 1626 1627 4 -3 8 -60 8 -128z"/>
</g>
</svg>
